<svg width="146" height="49" viewBox="0 0 146 49" fill="none" xmlns="http://www.w3.org/2000/svg">
<path d="M12.7222 13.073C7.74131 10.349 6.91305 8.17204 7.18913 5.72157C7.46521 3.2711 9.94994 1.64126 12.7222 1.9148C17.1395 2.17694 18.8075 5.72157 19.9118 9.8019H21.8443V0H12.1701C4.69292 0 -0.000427246 4.09173 -0.000427246 10.6225C-0.000427246 15.5121 3.58862 17.689 9.39778 21.2336C14.6548 24.2312 16.8634 26.4081 16.8634 29.9414C16.8634 33.4746 14.3787 35.3894 11.0542 35.3894C5.79723 35.1159 3.58862 30.7506 2.20822 23.6841H0.275658V37.2928H11.2958C17.105 37.2928 24.0185 33.4746 24.0185 25.5875C24.053 18.2361 19.0721 16.6062 12.7222 13.073Z" fill="black"/>
<path d="M106.575 11.3417C104.856 10.4285 102.921 10.0108 100.981 10.1344C95.3873 10.1344 91.3916 13.1354 91.5856 16.5387C91.6447 17.3707 92.001 18.153 92.5887 18.7407C93.1765 19.3283 93.9557 19.6816 94.7822 19.7351C96.78 19.7351 98.9834 18.7348 98.7779 16.1363C98.5838 14.3426 97.1796 14.3426 97.3737 12.9399C97.3737 11.9396 98.7779 11.5371 99.577 11.5371C101.575 11.3417 102.568 12.135 102.568 14.1357V18.5393C102.568 19.9421 102.169 20.1375 98.1728 21.9312C94.1771 23.7249 90.3869 24.9321 90.3869 30.7386C90.3869 36.9359 94.3826 37.9247 96.9741 37.9247C99.9766 37.9247 102.169 36.522 102.968 34.5329V37.5338H109.349V17.493C109.349 13.8942 108.379 12.4915 106.575 11.3417ZM102.58 29.5313C102.58 32.5207 101.78 34.9238 100.182 35.5217C98.9834 36.1196 97.5792 35.7286 97.5792 33.3256C97.3838 31.5335 97.3838 29.7252 97.5792 27.9331C97.7847 25.9324 98.1842 24.1388 100.388 22.7361L102.58 21.3333V29.5313Z" fill="black"/>
<path d="M80.4759 10.1233C79.2781 10.2188 78.1242 10.6146 77.1222 11.2738C76.1201 11.9329 75.3028 12.8339 74.7465 13.8924H74.6548C73.5089 11.2506 71.2172 10.0322 68.0889 10.1688C66.9486 10.232 65.8457 10.5953 64.8932 11.2216C63.9408 11.8479 63.1731 12.7147 62.6689 13.733V10.761H56.2519V37.2926H63.0699V17.2515C62.9892 16.497 63.0734 15.734 63.3166 15.0148C63.5598 14.2955 63.9565 13.6369 64.4794 13.0839C64.8131 12.8173 65.2012 12.6262 65.6168 12.524C66.0324 12.4217 66.4654 12.4107 66.8857 12.4918C68.4899 12.8903 68.49 14.8717 68.49 17.2515V37.2471H75.4226V17.2515C75.3434 16.498 75.4271 15.7363 75.6682 15.0176C75.9093 14.2988 76.3022 13.6395 76.8205 13.0839C77.1567 12.8177 77.5469 12.627 77.9642 12.5248C78.3816 12.4226 78.8162 12.4113 79.2383 12.4918C80.8426 12.8903 80.8426 14.8717 80.8426 17.2515V37.2471H87.8554V18.0373C87.9013 12.5032 84.8876 9.92973 80.4759 10.1233Z" fill="black"/>
<path d="M32.87 10.7452H25.9171V37.2926H32.87V10.7452Z" fill="black"/>
<path d="M32.2332 3.16064H26.5444V7.58521H32.2332V3.16064Z" fill="black"/>
<path d="M47.6072 13.6819C47.1291 12.6642 46.3997 11.798 45.4942 11.1726C44.5887 10.5472 43.5398 10.1851 42.4556 10.1237C38.2589 9.92663 35.3945 12.4996 35.3945 18.0398V21.6675V29.317C35.3945 34.8571 38.2589 37.4301 42.4668 37.2331C43.4177 37.1676 44.3419 36.8769 45.1691 36.3828C45.9963 35.8888 46.7048 35.2045 47.2409 34.3819L47.1187 40.177V44.616C47.1187 46.6327 46.1417 47.4324 44.2099 47.2354C43.4327 47.2354 42.0671 46.8297 42.0671 45.8214C41.8783 44.4074 43.1773 44.4074 43.4327 42.5993C43.6325 39.9799 41.4897 38.9716 39.5468 38.9716C38.743 39.0255 37.9852 39.3817 37.4136 39.9741C36.8421 40.5665 36.4955 41.355 36.4381 42.1937C36.2494 45.6707 40.1241 48.6494 45.5755 48.6494C47.4614 48.7716 49.3433 48.3507 51.0157 47.4324C52.7588 46.2734 53.7358 44.813 53.7247 41.1853V10.7148H47.6072V13.6819ZM45.8419 34.266C45.5231 34.5332 45.1523 34.7245 44.7554 34.8266C44.3584 34.9287 43.9449 34.9391 43.5437 34.8571C42.0227 34.463 42.0227 32.4811 42.0227 30.1051V29.1316V17.24C42.0227 14.864 42.0227 12.8821 43.5548 12.4881C43.956 12.4061 44.3695 12.4165 44.7665 12.5186C45.1634 12.6207 45.5343 12.812 45.853 13.0792C46.347 13.6331 46.7214 14.2911 46.9512 15.0088C47.1811 15.7266 47.2609 16.4874 47.1853 17.24V30.2674C47.2462 30.9934 47.1601 31.7246 46.9324 32.4135C46.7048 33.1024 46.3408 33.7336 45.8641 34.266H45.8419Z" fill="black"/>
<path d="M135.461 4.65829C135.489 4.38206 135.489 4.10416 135.461 3.82793C135.457 3.77461 135.472 3.72157 135.505 3.67656C135.537 3.63155 135.585 3.59695 135.641 3.57783C135.966 3.44777 136.347 3.44777 136.381 3.62785C136.415 3.80793 136.381 3.99801 136.089 4.04803H136.157C136.336 3.90797 136.437 3.62785 136.157 3.60784C135.876 3.58783 135.596 3.66786 135.562 3.83793C135.528 4.008 135.562 4.43819 135.562 4.71831C135.523 4.78023 135.496 4.84802 135.484 4.91839C135.537 4.94101 135.587 4.97145 135.629 5.00844C135.629 5.00844 135.528 5.06846 135.562 5.10848C135.596 5.14849 135.562 5.42862 135.629 5.53867C135.697 5.64872 135.809 5.61869 135.91 5.60869C135.808 5.14409 135.759 4.67147 135.764 4.19809H135.831C135.842 4.69919 135.906 5.19827 136.022 5.68873C136.388 5.52595 136.737 5.33516 137.065 5.11849C137.146 5.07157 137.212 5.0079 137.259 4.93297C137.306 4.85804 137.332 4.77408 137.334 4.6883C137.402 4.41819 137.402 4.15807 137.491 3.88796C137.581 3.61784 137.996 3.55782 138.075 3.88796C138.085 3.92875 138.085 3.97087 138.076 4.0118C138.067 4.05274 138.049 4.09166 138.023 4.12622C137.997 4.16077 137.963 4.19026 137.924 4.21292C137.884 4.23559 137.84 4.25097 137.794 4.25812C137.738 4.25812 137.682 4.25812 137.682 4.35816C137.592 5.04845 137.839 5.17852 138.153 5.25855C138.409 5.3334 138.687 5.31542 138.927 5.20853C139.163 5.08847 139.006 4.98842 138.927 5.02844C138.814 5.08723 138.688 5.12468 138.557 5.13849C138.466 5.15498 138.371 5.15369 138.28 5.1347C138.189 5.11571 138.104 5.07947 138.03 5.02844C138.156 5.08801 138.297 5.11915 138.439 5.11915C138.582 5.11915 138.723 5.08801 138.849 5.02844C138.699 4.81746 138.643 4.5641 138.692 4.31815C138.91 3.87923 138.938 3.38379 138.77 2.92756C138.614 2.63663 138.372 2.38948 138.069 2.21306C137.767 2.03665 137.415 1.93774 137.054 1.92713C136.677 1.86369 136.288 1.89841 135.932 2.02716L136.089 2.36732C136.145 2.30729 136.201 2.21725 136.258 2.20725C136.662 2.09158 137.102 2.12396 137.48 2.29728C137.57 2.3473 137.48 2.36731 137.48 2.35731C137.217 2.25889 136.928 2.22645 136.645 2.26347C136.363 2.30049 136.097 2.40557 135.876 2.5674C135.661 2.72503 135.515 2.94427 135.461 3.18766C135.461 3.18766 135.36 3.18766 135.338 3.30771C135.253 3.49373 135.253 3.70193 135.338 3.88796C135.351 4.1401 135.324 4.39261 135.259 4.63828C135.325 4.65332 135.393 4.66006 135.461 4.65829ZM138.636 3.7479C138.709 3.54808 138.74 3.3376 138.725 3.12764C138.787 3.47074 138.72 3.82234 138.535 4.12806C138.563 4.02803 138.56 3.92311 138.526 3.82445C138.493 3.7258 138.43 3.63711 138.344 3.56783C138.445 3.62785 138.58 3.81793 138.636 3.7479ZM135.876 2.65744C135.73 2.86753 135.674 2.98758 135.809 3.01759C135.95 3.0345 136.094 3.0345 136.235 3.01759C136.022 3.02225 135.811 3.05254 135.607 3.10763C135.652 2.93933 135.744 2.78423 135.876 2.65744Z" fill="black"/>
<path d="M145.006 8.52572C144.814 8.28615 144.95 7.86405 144.17 7.70433C143.499 7.00395 142.599 6.57404 141.637 6.49505C141.158 6.09884 140.548 5.89927 139.93 5.93607H139.545C139.195 5.93607 139.014 5.70791 138.686 5.67368C138.55 5.67368 138.494 5.57101 138.437 5.45693C138.244 5.46452 138.051 5.42947 137.872 5.35424C137.408 5.10326 137.42 4.7154 137.476 4.1564C137.476 3.98527 137.634 4.15639 137.793 3.95104C137.951 3.74569 137.555 3.22092 137.363 3.72288C137.319 3.91015 137.293 4.1011 137.284 4.29329C137.205 5.16031 136.945 5.25157 136.56 5.4341C136.391 5.50255 136.018 5.69648 135.893 5.76493C135.769 5.83338 135.972 5.89042 136.04 6.08436L127.967 0.756755C128 0.505842 127.944 0.251269 127.809 0.0380527C127.764 0.0130878 127.713 0 127.662 0C127.61 0 127.56 0.0130878 127.515 0.0380527C126.972 0.334665 127.718 0.277622 127.673 0.517193C127.638 0.877136 127.499 1.21885 127.274 1.50051C127.049 1.78216 126.748 1.99152 126.407 2.10293C124.699 2.7646 123.015 3.24373 122.223 5.32002C122.167 5.45691 122.223 5.50255 122.314 5.59382C122.432 5.86664 122.46 6.17078 122.393 6.46083H120.652V6.25549L119.747 6.52929L120.652 6.8145V6.59774H122.382V6.75745H122.461L122.314 6.8145C122.201 6.8145 122.155 6.92858 122.042 6.97421C121.929 7.01985 122.042 7.17954 122.37 7.06546C122.475 7.08424 122.582 7.08424 122.687 7.06546C122.766 7.06546 122.902 7.40772 123.06 7.48758C123.155 7.53407 123.26 7.55751 123.365 7.55602H123.218C123.218 7.55602 123.218 7.71573 123.218 7.74996C123.218 7.78418 123.275 7.93249 123.218 7.94389C123.233 7.94982 123.246 7.96006 123.254 7.97328C123.263 7.9865 123.268 8.00209 123.268 8.01805C123.268 8.03401 123.263 8.04961 123.254 8.06282C123.246 8.07604 123.233 8.08628 123.218 8.09221C123.159 8.10932 123.096 8.10932 123.037 8.09221C123.043 8.12237 123.043 8.15331 123.037 8.18347C123.164 8.21024 123.295 8.21024 123.422 8.18347C123.648 8.09221 123.795 7.89827 124.111 7.96672C125.525 7.96672 126.09 8.37741 127.775 8.44586C128.091 8.44586 128.306 8.44586 128.623 8.44586C128.938 8.42815 129.255 8.45892 129.561 8.53712C130.15 8.6521 130.748 8.7094 131.348 8.70824C131.924 8.70824 132.614 8.70824 133.134 8.70824C133.116 8.48808 133.116 8.26673 133.134 8.04656C133.135 7.92175 133.162 7.79849 133.212 7.68459C133.263 7.57069 133.337 7.46864 133.428 7.38491C133.296 7.57069 133.229 7.79526 133.236 8.02376C133.241 8.43379 133.371 8.83232 133.609 9.16458L133.451 9.30147C133.451 9.30147 133.394 9.24442 133.383 9.2102C133.36 9.29851 133.318 9.38042 133.259 9.44978L127.978 13.5795C127.897 13.2127 127.73 12.8706 127.492 12.5812C127.255 12.2917 126.952 12.0631 126.61 11.9139C124.677 11.1496 122.823 9.63231 122.947 8.2177V8.05798H123.083C123.097 8.04862 123.108 8.0359 123.116 8.02098C123.124 8.00605 123.128 7.98937 123.128 7.97243C123.128 7.95548 123.124 7.93879 123.116 7.92386C123.108 7.90893 123.097 7.89622 123.083 7.88685C123.139 7.82981 123.083 7.72715 123.083 7.70433C123.097 7.69256 123.108 7.67776 123.116 7.66099C123.124 7.64422 123.128 7.6259 123.128 7.60736C123.128 7.58881 123.124 7.57049 123.116 7.55372C123.108 7.53696 123.097 7.52215 123.083 7.51038C123.019 7.49158 122.96 7.45954 122.909 7.41631C122.859 7.37308 122.818 7.31964 122.789 7.25942C122.755 7.18489 122.718 7.11249 122.676 7.04266C122.553 7.06987 122.425 7.06987 122.302 7.04266H122.167C122.167 7.04266 122.167 7.27081 122.235 7.28222C122.198 7.3205 122.177 7.37162 122.177 7.42482C122.177 7.47802 122.198 7.52914 122.235 7.56742C122.21 7.598 122.196 7.63629 122.196 7.6758C122.196 7.71531 122.21 7.75361 122.235 7.78418C122.167 7.78418 122.235 7.96672 122.291 7.98954H122.359C122.396 8.23772 122.361 8.49147 122.257 8.71966C122.189 8.81092 122.11 8.85655 122.167 8.99344C122.947 11.0925 124.643 11.5489 126.35 12.222C126.69 12.3313 126.992 12.5386 127.217 12.8183C127.441 13.098 127.581 13.4379 127.617 13.7963C127.617 14.0359 126.904 13.9788 127.458 14.2868C127.503 14.3118 127.554 14.3249 127.605 14.3249C127.657 14.3249 127.707 14.3118 127.752 14.2868C127.866 14.0942 127.921 13.872 127.911 13.648L132.897 9.66654C132.811 9.76466 132.749 9.88191 132.716 10.0088C132.667 10.6172 132.736 11.2296 132.919 11.8113C133.031 12.0902 133.111 12.3811 133.157 12.6783C133.198 12.7311 133.253 12.7707 133.315 12.7924C133.473 12.8677 133.606 12.9863 133.7 13.1346C133.753 13.1974 133.798 13.2664 133.835 13.3399C133.796 13.3405 133.757 13.3302 133.723 13.31C133.689 13.2899 133.662 13.2608 133.643 13.2259C133.485 12.8836 133.372 12.8608 133.281 12.8038L133.157 12.7353C133.157 13.0433 132.784 13.2715 132.739 13.6936C132.546 13.9446 132.071 14.3211 132.411 14.6975C132.75 15.074 133.541 14.9599 134.129 15.2907C133.553 15.0626 133.066 15.2908 132.478 14.9371C132.374 14.8854 132.287 14.8036 132.229 14.7021C132.17 14.6006 132.143 14.4838 132.151 14.3667C131.992 14.9257 131.212 15.2109 130.907 15.4391C129.098 16.7624 126.384 18.2455 125.039 17.9831C124.664 17.9248 124.283 17.9248 123.908 17.9831C122.562 18.2097 121.333 18.8941 120.425 19.9225C120.283 20.0959 120.158 20.2832 120.052 20.4814C119.536 20.2897 118.996 20.1707 118.447 20.1278C117.138 20.1209 115.867 20.5724 114.851 21.4055C114.237 21.9499 113.737 22.6133 113.381 23.3563C112.996 24.0388 112.707 24.7722 112.522 25.5353C112.379 26.1748 112.337 26.8333 112.398 27.4861C112.4 27.9431 112.253 28.3882 111.979 28.7524C112.335 28.4729 112.567 28.0628 112.624 27.6115C112.624 27.2921 112.624 26.9955 112.624 26.7103C112.748 27.343 112.748 27.9942 112.624 28.6269C112.409 29.3 111.708 29.6878 111.244 30.2126C111.866 29.7677 112.669 29.5167 113.121 28.8893C113.68 28.0693 114.023 27.1191 114.116 26.1285C114.191 24.8907 114.724 23.7264 115.609 22.8658C115.181 23.3658 114.907 23.9799 114.817 24.634C114.791 25.1588 114.707 25.679 114.569 26.1855C115.216 25.5746 115.709 24.8156 116.005 23.9723C116.053 23.651 116.161 23.3416 116.321 23.0597C116.225 23.3248 116.16 23.6005 116.129 23.8811C116.111 24.0233 116.085 24.1643 116.05 24.3032C116.909 23.6301 116.966 22.5463 117.508 21.9075C117.67 21.692 117.876 21.5142 118.112 21.3862C118.348 21.2583 118.609 21.1831 118.876 21.1659C119.161 21.1327 119.449 21.156 119.724 21.2344C119.295 22.2155 119.135 23.2952 119.261 24.3602C119.498 25.5011 120.041 25.7863 120.392 26.8586C120.693 26.453 120.834 25.9488 120.787 25.444C120.93 25.9041 120.894 26.4018 120.686 26.8358C120.493 27.3058 120.2 27.7267 119.826 28.0679C119.051 28.6536 118.243 29.1944 117.407 29.6878C117.067 29.916 116.762 30.1442 116.796 30.5663C116.83 30.9884 117.26 31.0112 117.44 31.2507C118.277 32.3916 119.306 33.8746 119.939 34.8671C120.03 35.004 120.267 35.2436 120.256 35.4147C120.245 35.5859 120.064 35.757 120.55 35.9509C120.731 35.9509 121.059 35.9509 121.273 36.2932C121.273 36.3502 121.409 36.3844 121.556 36.4073C121.575 36.5778 121.575 36.75 121.556 36.9206C121.556 37.0233 121.556 37.0689 121.669 37.1374C121.962 37.2522 122.274 37.3044 122.588 37.2906C122.901 37.2769 123.208 37.1975 123.49 37.0575C123.373 36.681 123.144 36.3502 122.834 36.1106C122.842 36.0221 122.83 35.9329 122.799 35.8499C122.767 35.7668 122.717 35.6921 122.653 35.6315C122.144 35.3006 121.522 35.0497 121.172 34.6047C120.595 33.7149 119.838 32.209 119.295 31.3306C119.069 30.9541 118.571 30.4864 118.696 30.1898C118.761 30.432 118.895 30.6499 119.08 30.8172C120.46 30.0344 121.919 29.4033 123.433 28.9349C123.96 28.7469 124.399 28.369 124.666 27.8739C125.111 26.9136 125.257 25.8395 125.084 24.7937C125.003 24.2808 124.973 23.7611 124.993 23.2422C125.08 22.849 125.209 22.4665 125.378 22.1014C125.112 22.9165 125.112 23.7961 125.378 24.6112C126.464 24.196 127.609 23.9573 128.77 23.9039C129.901 23.8012 130.602 24.0408 131.687 23.9723C133.191 23.8697 135.78 22.6832 136.142 22.033C136.412 21.5109 136.58 20.9417 136.639 20.356C135.981 20.7572 135.21 20.9257 134.446 20.8351C134.139 20.82 133.841 20.7261 133.58 20.5625C133.318 20.3988 133.103 20.1707 132.953 19.8997V19.8198C133.372 20.5499 133.96 20.4929 134.548 20.7096C134.931 20.7948 135.333 20.7381 135.678 20.5499C136.051 20.3674 136.266 20.5499 136.549 20.1734C136.899 20.0993 137.225 19.9386 137.499 19.7057C138.54 19.2498 139.628 18.9131 140.744 18.7018C140.857 18.8022 141 18.8624 141.151 18.8729C141.614 19.7057 142.191 21.474 142.632 22.1584C142.519 22.4779 142.462 22.5691 141.999 22.6946C141.829 22.6946 141.705 22.6947 141.535 22.7517C141.366 22.8087 141.535 23.0597 141.535 23.208C141.452 23.253 141.359 23.2765 141.264 23.2765C141.169 23.2765 141.076 23.253 140.993 23.208C140.888 23.4317 140.84 23.6784 140.854 23.9255C140.868 24.1726 140.943 24.4122 141.072 24.6226C141.312 24.4009 141.538 24.1647 141.75 23.9153C141.802 23.9301 141.856 23.9327 141.909 23.9228C141.962 23.9129 142.012 23.8908 142.055 23.8583C142.157 23.7556 142.338 23.7214 142.53 23.5046C142.795 23.1837 143.082 22.8825 143.39 22.6034C143.48 22.5121 143.604 22.4437 143.661 22.3182C143.703 22.1386 143.702 21.9513 143.656 21.7725C143.611 21.5937 143.523 21.4286 143.401 21.2914C142.935 20.3481 142.527 19.3765 142.18 18.3823C142.18 18.1656 142.27 17.8918 142.112 17.7549C141.954 17.618 141.298 17.1617 140.981 17.31C140.665 17.4583 138.595 17.31 137.307 17.4241C137.133 17.428 136.96 17.397 136.798 17.3328C136.289 17.116 136.108 16.6483 135.667 16.3859C135.493 16.2942 135.306 16.2288 135.113 16.192C135.198 16.1693 135.288 16.1693 135.373 16.192C135.716 16.2711 136.022 16.4639 136.244 16.7396C136.251 16.2236 136.154 15.7114 135.961 15.2337C135.787 14.821 135.48 14.4794 135.09 14.264C134.919 14.1831 134.76 14.0795 134.615 13.956C134.839 14.0225 135.058 14.1025 135.271 14.1956C135.471 14.2965 135.649 14.4376 135.792 14.6103C135.936 14.7829 136.044 14.9834 136.108 15.1995C136.247 15.7122 136.312 16.2424 136.3 16.7738C136.421 16.9608 136.6 17.1014 136.809 17.1731C137.069 17.2506 137.342 17.2739 137.612 17.2416C138.008 16.7282 137.668 15.6672 137.951 15.0284C138.173 14.4793 138.266 13.8857 138.222 13.2943V13.2031C138.391 12.9017 138.58 12.612 138.788 12.336C139.52 11.6215 140.028 10.7048 140.246 9.70076C140.263 9.48052 140.263 9.25933 140.246 9.03909C140.246 8.93641 140.359 8.87937 140.495 8.9136C140.862 9.03607 141.241 9.12018 141.626 9.16458C141.184 8.81411 140.692 8.5333 140.167 8.33177C139.921 8.37567 139.694 8.49061 139.511 8.66261C139.003 9.11894 138.448 9.88328 137.793 10.0772C136.988 10.2794 136.145 10.2597 135.35 10.0202C135.28 9.99523 135.218 9.95287 135.169 9.89703C135.119 9.84119 135.084 9.7737 135.068 9.70076C134.966 9.88329 134.514 9.88328 134.276 9.84905C133.98 9.79865 133.707 9.65489 133.496 9.43836L133.666 9.31287L133.756 9.39274C134.378 9.86047 134.977 9.72357 135.034 9.52963C135.16 9.06474 135.397 8.63793 135.724 8.28614C135.837 8.14925 135.904 8.05798 136.006 8.02376C135.618 8.43633 135.352 8.94992 135.237 9.50681C135.237 9.72356 135.407 9.80342 135.633 9.84905C136.33 10.0363 137.062 10.0363 137.759 9.84905C138.697 9.4954 139.364 8.42303 140.02 8.29754C139.812 8.18737 139.592 8.10309 139.364 8.04656C139.037 8.15 138.686 8.15 138.358 8.04656C138.358 8.11501 138.2 8.16066 138.075 8.18347C137.806 8.23053 137.531 8.23053 137.261 8.18347C137.058 8.11502 137.013 7.82981 137.058 7.79558C137.009 7.75047 136.975 7.69042 136.963 7.62454C136.951 7.55865 136.96 7.49054 136.99 7.43053C136.899 7.43053 136.832 7.0997 136.99 7.04266C136.922 7.04266 136.854 6.95138 136.843 6.87153V6.74604C136.863 6.68113 136.9 6.62273 136.949 6.57668C136.999 6.53062 137.06 6.49854 137.126 6.48365C137.345 6.43866 137.569 6.41574 137.793 6.41521C137.94 6.41521 138.109 6.50648 138.313 6.52929C138.822 6.55844 139.329 6.62708 139.828 6.73463C140.721 6.95139 141.558 7.44193 142.451 7.63587C142.775 7.67002 143.096 7.72721 143.412 7.807C143.163 7.807 142.745 7.807 142.496 7.74996C141.49 7.55602 140.755 7.16815 139.771 6.88295C139.575 6.81486 139.369 6.78015 139.161 6.78026C138.844 6.78026 138.29 6.63197 137.838 6.56352C137.611 6.57214 137.384 6.595 137.16 6.63196C137.024 6.63196 136.933 6.88294 137.035 6.92857L137.374 7.05406C137.272 7.07445 137.173 7.109 137.08 7.15673C136.99 7.22518 137.08 7.40771 137.16 7.46475C137.137 7.49167 137.121 7.52339 137.113 7.55748C137.105 7.59157 137.105 7.62711 137.112 7.66132C137.12 7.69553 137.135 7.7275 137.157 7.75475C137.179 7.78199 137.207 7.80377 137.239 7.8184C137.16 7.87545 137.239 8.08079 137.397 8.10361C137.589 8.12436 137.782 8.12436 137.974 8.10361C138.109 8.10361 138.2 8.02376 138.177 8.00094C138.03 7.90287 137.856 7.8549 137.68 7.86405C137.68 7.78419 137.781 7.78418 137.827 7.79558C138.155 7.79558 138.415 7.97813 138.754 7.98954C139.093 8.00095 139.296 7.85264 139.455 7.89827C140.585 8.20629 141.716 9.22161 142.847 9.74639C143.125 9.91346 143.439 10.0091 143.763 10.0251C144.086 10.041 144.408 9.97663 144.701 9.83765C145.018 9.70076 145.266 9.63231 145.357 9.29007C145.447 8.94782 145.21 8.7767 145.006 8.52572ZM120.991 34.696C120.991 34.8215 121.206 34.9242 121.341 35.0383C121.148 34.9599 120.947 34.9025 120.742 34.8671C120.77 34.8492 120.791 34.8231 120.803 34.7924C120.815 34.7618 120.818 34.7281 120.81 34.696C120.726 34.4143 120.605 34.1455 120.448 33.8974C120.653 34.1462 120.835 34.4136 120.991 34.696ZM121.296 29.3684C121.861 29.1288 122.574 28.9805 122.913 28.49C123.071 28.6611 123.297 28.6041 123.512 28.5927C122.8 28.9231 122.058 29.1829 121.296 29.3684ZM123.557 20.413C123.392 20.2347 123.174 20.1147 122.936 20.0708C123.207 20.0708 123.456 20.0708 123.648 20.2989C123.833 20.9335 123.939 21.5887 123.964 22.2497C123.851 22.033 123.727 20.6069 123.569 20.4244L123.557 20.413ZM125.887 19.7057C125.524 20.2726 125.206 20.8677 124.937 21.4854C125.15 20.8074 125.407 20.1443 125.706 19.5004C125.765 19.3214 125.761 19.1273 125.696 18.9507C125.63 18.7741 125.505 18.6258 125.344 18.5307C125.039 18.3481 124.62 18.5307 124.27 18.3025C124.722 18.371 125.265 18.234 125.615 18.5192C125.781 18.6616 125.897 18.853 125.948 19.0661C125.998 19.2793 125.981 19.5032 125.898 19.7057H125.887ZM131.619 15.9524C131.156 15.8155 130.33 16.443 129.776 16.6597C130.511 16.2853 131.195 15.8176 131.811 15.2679C131.734 15.362 131.678 15.4719 131.646 15.5901C131.615 15.7083 131.61 15.8319 131.63 15.9524H131.619ZM143.016 22.6034C143.033 22.5739 143.042 22.5405 143.042 22.5064C143.042 22.4724 143.033 22.4389 143.016 22.4094C143.089 22.4385 143.169 22.4431 143.244 22.4226C143.32 22.402 143.387 22.3574 143.435 22.2954C143.35 22.4245 143.238 22.5335 143.107 22.6148C142.938 22.7506 142.779 22.8994 142.632 23.0597C142.779 22.8886 142.869 22.7859 143.028 22.6034H143.016ZM141.547 18.4736C141.666 18.8026 141.753 19.1427 141.807 19.4889C141.736 19.1829 141.618 18.8902 141.456 18.6219C141.409 18.6102 141.365 18.5877 141.328 18.556C141.29 18.5243 141.261 18.4845 141.241 18.4394C141.288 18.4691 141.341 18.4876 141.396 18.4935C141.451 18.4995 141.506 18.4927 141.558 18.4736H141.547ZM136.244 19.9681C136.47 19.8426 136.617 19.4889 136.82 19.3406C136.708 19.632 136.525 19.8907 136.289 20.0936C136.006 20.2761 135.78 20.0936 135.531 20.0251C135.773 20.0791 136.025 20.0593 136.255 19.9681H136.244ZM136.549 11.2066C136.696 11.4234 136.617 11.6059 136.786 11.9025C136.481 11.6515 136.696 11.2066 136.051 10.91C136.152 10.9228 136.248 10.9556 136.336 11.0065C136.423 11.0574 136.499 11.1255 136.56 11.2066H136.549ZM135.418 13.0776C135.481 12.9201 135.481 12.7445 135.418 12.587C135.361 12.4544 135.297 12.3249 135.226 12.1991C135.318 12.2949 135.398 12.4023 135.464 12.5186C135.599 12.7467 135.599 13.0205 135.475 13.0776H135.418ZM135.271 11.6287C135.339 11.8227 135.271 11.9824 135.124 11.9824C135.165 11.946 135.196 11.8995 135.214 11.8476C135.232 11.7956 135.236 11.7399 135.226 11.6858C135.165 11.5531 135.097 11.4236 135.023 11.2979C135.142 11.3899 135.245 11.5017 135.328 11.6287H135.271ZM135.136 10.8872C135.226 11.0811 135.215 11.2865 134.898 11.1952C134.928 11.1988 134.959 11.1945 134.987 11.1829C135.016 11.1713 135.04 11.1526 135.06 11.1287C135.079 11.1048 135.092 11.0765 135.097 11.0462C135.102 11.0159 135.1 10.9848 135.09 10.9556C135.023 10.7959 134.921 10.7161 134.853 10.5564C134.983 10.648 135.097 10.7596 135.192 10.8872H135.136ZM133.553 18.2112C133.417 17.9146 133.553 17.7207 133.722 17.4811C133.648 17.7109 133.648 17.9586 133.722 18.1884C133.813 18.4166 134.141 18.6105 134.265 18.8387C133.997 18.6889 133.772 18.473 133.609 18.2112H133.553ZM133.553 10.4195C133.641 10.3777 133.738 10.356 133.835 10.356C133.933 10.356 134.03 10.3777 134.118 10.4195C133.417 10.3624 133.383 10.8644 132.987 10.9214C133.338 10.7161 133.417 10.5335 133.643 10.4195H133.553ZM132.207 6.84872C132.049 6.90576 131.777 6.74603 130.794 6.78026C130.061 6.82233 129.336 6.95256 128.634 7.16815C128.476 7.16815 128.205 7.05406 128.046 7.05406C126.226 6.87153 126.09 7.22519 124.564 7.1111C124.334 7.08746 124.103 7.08746 123.874 7.1111C123.624 7.07455 123.388 6.9766 123.184 6.8259C123.103 6.76633 123.011 6.72367 122.913 6.70041V6.56352L132.705 6.66619L132.207 6.84872ZM134.887 6.4038C134.774 6.48366 134.502 6.4038 134.254 6.4038C133.871 6.38852 133.489 6.43865 133.123 6.5521L122.947 6.44943V6.1414C122.823 4.70398 124.677 3.20952 126.622 2.44517C126.95 2.30113 127.242 2.08349 127.476 1.80876C127.709 1.53403 127.877 1.20941 127.967 0.859441L135.825 6.03874C135.599 6.18704 135.068 6.20987 134.876 6.4038H134.887ZM135.893 6.06156L136.074 6.17563C136.07 6.22499 136.07 6.27458 136.074 6.32394C136.023 6.22764 135.958 6.13928 135.882 6.06156H135.893Z" fill="black"/>
<path d="M136.818 1.5351C137.165 1.57792 137.497 1.70895 137.783 1.9164C138.069 2.12385 138.3 2.40122 138.457 2.72362C138.533 2.92134 138.579 3.12967 138.595 3.34165C138.639 3.62512 138.639 3.91391 138.595 4.19738C138.581 4.40071 138.61 4.60476 138.68 4.79554C138.75 4.98632 138.859 5.15933 138.999 5.30271C139.623 5.8732 140.915 5.02934 141.123 5.36212C141.331 5.69491 140.465 5.74245 140.408 6.05146C140.338 6.56252 141.562 6.25351 141.354 5.88507C141.181 6.19408 140.789 6.21785 140.777 6.05146C140.765 5.88507 141.527 5.58794 141.573 5.32647C141.62 5.06499 141.412 5.02935 141.239 5.01746C140.685 5.01746 139.634 5.56417 139.219 4.6609C138.803 3.75763 139.565 2.1056 138.064 1.19044C137.161 0.863495 136.216 0.675274 135.259 0.631836C135.293 0.953904 135.4 1.2633 135.571 1.5351C135.982 1.4518 136.406 1.4518 136.818 1.5351Z" fill="black"/>
<path d="M140.02 19.0427C139.897 19.0274 139.775 19.0005 139.658 18.9625C138.761 19.1128 137.892 19.3708 137.074 19.7294C137.812 19.8073 138.545 19.918 139.271 20.0613C139.339 20.1825 139.447 20.2823 139.581 20.3475C139.551 21.3167 139.314 22.2722 138.883 23.1633C138.787 23.2056 138.68 23.2276 138.573 23.2276C138.465 23.2276 138.359 23.2056 138.263 23.1633C138.197 23.1322 138.124 23.1159 138.05 23.1159C137.975 23.1159 137.902 23.1322 137.836 23.1633C137.694 23.2205 137.694 23.4036 137.617 23.5295C137.518 23.5415 137.418 23.5333 137.324 23.5055C137.23 23.4777 137.144 23.4311 137.074 23.3693C136.875 23.5288 136.722 23.7289 136.63 23.9523C136.538 24.1756 136.508 24.4155 136.544 24.6513C136.862 24.5585 137.173 24.4476 137.475 24.3193C137.525 24.3399 137.58 24.3505 137.636 24.3505C137.692 24.3505 137.747 24.3399 137.798 24.3193C137.94 24.3193 138.108 24.0332 138.379 23.9301C138.69 23.7968 139.029 23.7227 139.374 23.7127C139.507 23.7078 139.635 23.6635 139.736 23.5868C140.046 23.3235 139.891 23.1747 140.02 22.8542C140.355 22.0075 140.593 21.1332 140.731 20.2445C140.795 20.0613 141.015 19.8668 140.938 19.6836C140.86 19.5005 140.382 19.0427 140.02 19.0427ZM139.116 23.7699C138.868 23.7952 138.622 23.8334 138.379 23.8843L139.038 23.7127C139.071 23.6955 139.1 23.6724 139.122 23.6448C139.144 23.6172 139.16 23.5857 139.167 23.5524C139.22 23.6146 139.292 23.6617 139.375 23.6881C139.458 23.7146 139.547 23.7191 139.632 23.7012C139.471 23.7676 139.294 23.799 139.116 23.7928V23.7699ZM139.697 21.6638C139.806 21.3643 139.863 21.0515 139.865 20.7367C139.822 20.7032 139.789 20.66 139.771 20.6117C139.753 20.5635 139.75 20.5118 139.762 20.462C139.785 20.512 139.822 20.5561 139.869 20.5902C139.917 20.6242 139.973 20.647 140.033 20.6566C139.961 21.0017 139.848 21.3392 139.697 21.6638Z" fill="black"/>
</svg>
